<?xml version="1.0" encoding="utf-8"?>
<!-- Generator: Adobe Illustrator 24.1.3, SVG Export Plug-In . SVG Version: 6.00 Build 0)  -->
<svg version="1.1" id="Layer_1" xmlns="http://www.w3.org/2000/svg" xmlns:xlink="http://www.w3.org/1999/xlink" x="0px" y="0px"
	 viewBox="0 0 100 125" style="enable-background:new 0 0 100 125;" xml:space="preserve">
<style type="text/css">
	.st0{fill-rule:evenodd;clip-rule:evenodd;}
</style>
<g>
	<path class="st0" d="M47.8,95.1c-5.8,0-11.7,0-17.5,0c-1.2,0-2.6-0.2-3.7-0.7c-1.6-0.7-1.8-1.8-1-3.3c0.7-1.2,1.3-2.5,2.2-3.6
		c3.9-5.1,5-10.7,3.3-16.9c-1.2-4.6-2.4-9.3-3.3-13.9c-1.3-7.4-0.1-14.5,4-20.9c1.7-2.6,4.1-4.5,6.8-6.1c1.3-0.8,2.7-1.5,4-2.2
		c2.2-1.1,3.7-2.8,4.6-5.1c0.4-1.1,0.9-2.1,1.3-3.1c0.2-0.5,0.6-1,0.9-1.5c0.2-0.2,0.6-0.5,0.9-0.5c0.3,0.1,0.6,0.5,0.7,0.8
		c0.2,1.1,0.3,2.2,0.4,3.3c0.1,1,0.3,2.1,0.4,3.1c0.3,2.1,1.4,3.4,3.4,4c1.1,0.3,2.3,0.6,3.4,0.7c2.7,0.4,4.9,1.6,6.4,3.9
		c2.5,3.6,5.7,6.5,9.3,8.9c1.9,1.2,3.4,2.8,3.9,5.2c0.5,2.6-0.3,4.8-2.4,6.4c-2.2,1.7-4.6,2.2-7.2,1.1c-1.2-0.5-2.2-1.3-3.2-2.1
		c-2.4-2-4.9-2.2-7.8-1c-1.2,0.5-2.5,0.9-3.8,1.3c-0.9,0.3-1,0.9-0.3,1.7c1.3,1.7,2.7,3.3,3.9,5.1c2.7,3.9,4.4,8.3,6.2,12.7
		c1.8,4.4,3.8,8.8,5.6,13.3c0.8,1.9,1.2,4,1.6,6c0.1,0.6-0.3,1.4-0.7,1.9c-1,1.2-2.3,1.7-3.9,1.7C60.1,95,54,95.1,47.8,95.1
		C47.8,95.1,47.8,95.1,47.8,95.1z M39.2,76.9c-0.1-1.1,0-2.2-0.3-3.3c-0.9-4.2-1.8-8.5-2.7-12.7c-0.9-3.8-1.9-7.6-2-11.6
		c-0.1-3.6,0.7-7,3.1-9.8c1.7-2,3.9-3.4,6.2-4.6c1-0.5,1.2-1.1,0.8-1.9c-0.4-0.9-1.2-1.2-2.1-0.8c-0.6,0.3-1.2,0.6-1.7,0.9
		c-6.1,3.5-9.4,8.7-9.3,15.9c0,3.8,0.8,7.5,1.8,11.1c1.2,4.7,2.7,9.4,3.1,14.4c0.4,4.6-0.3,8.9-3,12.7c-0.3,0.4-0.7,0.8-1,1.2
		c-0.5,0.7-0.3,1.6,0.3,2.1c0.7,0.5,1.3,0.5,2-0.2c0.2-0.2,0.4-0.4,0.6-0.7C37.8,85.9,39.2,81.6,39.2,76.9z M55.5,33.4
		c0.1,0.3,0.1,0.5,0.2,0.7c1.4,2.4,3.6,3.4,6.2,4c0.2,0,0.6-0.1,0.6-0.3c0.1-0.2-0.1-0.5-0.2-0.7c-0.9-0.9-1.7-1.8-2.6-2.6
		C58.5,33.7,57.1,33.3,55.5,33.4z"/>
	<path class="st0" d="M47.5,107.8c-6.8,0-13.7,0-20.5,0c-0.6,0-1.2,0-1.8-0.1c-2.3-0.2-3.8-1.7-3.7-3.9c0-2.2,1.6-3.8,3.9-3.9
		c0.3,0,0.5,0,0.8,0c13.8,0,27.7,0,41.5,0c0.7,0,1.4,0,2.1,0c2.2,0.1,3.8,1.8,3.9,3.9c0.1,2.1-1.6,3.7-3.8,3.9
		c-0.5,0-0.9,0.1-1.4,0.1C61.6,107.8,54.5,107.8,47.5,107.8z"/>
</g>
</svg>
