<?xml version="1.0" encoding="utf-8"?>
<!-- Generator: Adobe Illustrator 24.1.3, SVG Export Plug-In . SVG Version: 6.00 Build 0)  -->
<svg version="1.1" id="Layer_1" xmlns="http://www.w3.org/2000/svg" xmlns:xlink="http://www.w3.org/1999/xlink" x="0px" y="0px"
	 viewBox="0 0 100 125" style="enable-background:new 0 0 100 125;" xml:space="preserve">
<style type="text/css">
	.st0{fill-rule:evenodd;clip-rule:evenodd;}
</style>
<g>
	<path class="st0" d="M43.2,50.5c-5.7-3.2-9.3-7.9-9.8-14.6c-0.3-4.6,1.3-8.6,4.4-11.9c6.9-7.2,17.6-7.1,24.2,0.1
		c3.7,4.1,5.2,9,4,14.5c-1.1,5.4-4.6,9.2-9.5,11.9c0.9,2.1,1.8,4,2.6,6c4.5,10.2,8.9,20.4,13.4,30.6c0.2,0.4,0.3,0.8,0.5,1.2
		c0.8,2.7-0.7,5.1-3.6,5.4c-0.8,0.1-1.7,0.1-2.5,0.1c-11.8,0-23.6,0-35.4,0c-0.8,0-1.6,0-2.3-0.2C27,92.7,25.9,90,27,87.5
		c2.4-5.6,4.9-11.3,7.4-16.9c2.8-6.4,5.6-12.7,8.4-19.1C42.9,51.2,43.1,50.9,43.2,50.5z"/>
	<path class="st0" d="M50.1,98.4c7.2,0,14.4,0,21.6,0c3,0,5,2.3,4.3,5c-0.4,1.5-1.7,2.7-3.3,2.9c-0.6,0.1-1.2,0.1-1.8,0.1
		c-13.9,0-27.8,0-41.7,0c-0.6,0-1.1,0-1.7-0.1c-2.3-0.2-3.8-1.7-3.7-3.9c0-2.2,1.6-3.8,3.9-3.9c2.5,0,4.9,0,7.4,0
		C40.2,98.5,45.1,98.5,50.1,98.4C50.1,98.5,50.1,98.5,50.1,98.4z"/>
</g>
</svg>
