<?xml version="1.0" encoding="utf-8"?>
<!-- Generator: Adobe Illustrator 24.1.3, SVG Export Plug-In . SVG Version: 6.00 Build 0)  -->
<svg version="1.1" id="Layer_1" xmlns="http://www.w3.org/2000/svg" xmlns:xlink="http://www.w3.org/1999/xlink" x="0px" y="0px"
	 viewBox="0 0 100 125" style="enable-background:new 0 0 100 125;" xml:space="preserve">
<style type="text/css">
	.st0{fill-rule:evenodd;clip-rule:evenodd;}
</style>
<g>
	<path class="st0" d="M68.4,64.7c-0.2,5.8-2.1,11.5-6.6,16c-6.5,6.6-16.1,6.8-23,0.6c-9.2-8.2-9.7-24.5-1.1-33.3
		c8.5-8.8,20.4-6.5,26.5,2.4C67,54.5,68.3,59.1,68.4,64.7z"/>
	<path class="st0" d="M58,85.8c9.3-5.6,13-14,12-24.4c-0.9-9.2-5.4-16.3-14.4-20c1.9-1.4,3.9-2.4,6.1-3.1
		c13.1-4.3,27.3,4.9,28.8,18.6c1.2,10.6-5.1,22.4-14.3,26.9c-2.5,1.2-5.1,2-7.9,1.9c-3.1-0.1-6.2,0-9.4,0
		C58.7,85.8,58.4,85.8,58,85.8z"/>
	<path class="st0" d="M42.2,85.8c-4.5,0-8.9,0.3-13.1-0.1c-4-0.4-7.5-2.5-10.4-5.3c-5.4-5.1-8.4-11.3-9.2-18.6
		c-1.5-14.1,11-26.1,24.8-24.3c3.4,0.4,6.6,1.5,9.5,3.4c0.3,0.2,0.6,0.3,0.7,0.6c-10.3,3.6-15.2,14.4-14.6,24.1
		c0.5,7,3.1,12.9,8.5,17.5c0.5,0.4,1,0.8,1.5,1.1C40.5,84.8,41.2,85.2,42.2,85.8z"/>
	<path class="st0" d="M50,96.6c-7,0-14.1,0-21.1,0c-2.2,0-3.6-1.7-3.1-3.9c0.1-0.6,0.5-0.9,0.8-1.3c1.3-1.5,2.8-1.9,4.8-1.9
		c13.1,0.1,26.1,0.1,39.2,0c0.7,0,1.2,0.2,1.7,0.7c0.3,0.4,0.7,0.7,1.1,1.1c1.2,1.1,1.4,1.8,0.8,3.3c-0.5,1.3-1.4,2-2.9,2
		c-2.9,0-5.9,0-8.8,0C58.3,96.6,54.1,96.6,50,96.6z"/>
	<path class="st0" d="M47.5,35.9c0-1.4,0-2.8,0-4.2c0-0.8-0.3-1.2-1.2-1.2c-1.6,0-3.3,0-4.9,0c-0.7,0-1.4-0.1-2-0.4
		c-1-0.5-1.5-1.3-1.4-2.4c0-1,0.6-1.7,1.7-2.1c0.9-0.3,1.7-0.2,2.6-0.2c1.3,0,2.7,0,4,0c0.8,0,1.2-0.3,1.2-1.2c0-1.2,0-2.5,0-3.7
		c0-1.6,1.1-2.8,2.5-2.8c1.6,0,2.6,1.1,2.6,2.9c0,1.2,0,2.4,0,3.6c0,0.9,0.4,1.2,1.2,1.2c1.9,0,3.8-0.1,5.7,0c2,0.1,3.2,1.9,2.4,3.5
		c-0.6,1.1-1.6,1.5-2.7,1.5c-1.7,0-3.4,0-5.2,0c-1.2,0-1.3,0.2-1.3,1.4c0,2.7,0,5.5,0,8.2c0,0.5,0,0.8-0.7,0.7
		c-1.2-0.2-2.5-0.2-3.7,0c-0.6,0.1-0.7-0.2-0.7-0.7C47.5,38.7,47.5,37.3,47.5,35.9z"/>
	<path class="st0" d="M49.9,107.2c-7.3,0-14.6,0-21.9,0c-1.8,0-3.1-0.9-3.8-2.5c-0.6-1.5-0.3-2.9,0.7-4.1c1-1.1,2.3-1.3,3.6-1.3
		c8,0,16,0,24,0.1c5.1,0,10.2,0,15.3,0c1.6,0,3.2-0.2,4.8,0.1c2.1,0.4,3.5,1.9,3.5,3.9c0,2-1.6,3.6-3.7,3.8c-0.4,0-0.8,0.1-1.3,0.1
		C64.1,107.2,57,107.2,49.9,107.2z"/>
</g>
</svg>
