<?xml version="1.0" encoding="utf-8"?>
<!-- Generator: Adobe Illustrator 24.1.3, SVG Export Plug-In . SVG Version: 6.00 Build 0)  -->
<svg version="1.1" id="Layer_1" xmlns="http://www.w3.org/2000/svg" xmlns:xlink="http://www.w3.org/1999/xlink" x="0px" y="0px"
	 viewBox="0 0 100 125" style="enable-background:new 0 0 100 125;" xml:space="preserve">
<style type="text/css">
	.st0{fill-rule:evenodd;clip-rule:evenodd;}
</style>
<g>
	<path class="st0" d="M38.6,64.4c-1.1-0.8-2.3-1.4-3.2-2.2c-2.2-1.9-2.8-4.5-2.9-7.3c-0.1-3.8,0.6-7.4,1.8-11
		c1.7-5.3,4-10.2,7.8-14.4c1.5-1.6,3.2-2.9,5.3-3.8c-0.4-0.9-0.7-1.7-1-2.5c-0.6-1.7-0.2-3.3,1.3-4.5c1.3-1.1,3.2-1.2,4.6-0.4
		c1.5,0.9,2.3,2.7,1.9,4.4c-0.2,1-0.6,1.9-1,2.9c4.9,2.2,7.6,6.3,9.9,10.8c2.9,5.8,4.9,11.8,4.7,18.3c-0.1,2.7-0.7,5.2-2.7,7.1
		c-1,0.9-2.2,1.6-3.4,2.5c0.7,1.6,1.4,3.3,2.2,5c2.9,6.3,5.9,12.5,8.8,18.8c0.4,1,0.6,2.1,0.6,3.2c-0.1,1.8-1.4,2.9-3.2,2.9
		c-3.6,0.1-7.3,0.1-10.9,0.1c-9.2,0-18.5,0-27.7,0c-0.4,0-0.8,0-1.2,0c-1.9-0.2-3-1.2-3.1-3.1c0-1,0.2-2.2,0.6-3.1
		c3-6.5,6.1-12.9,9.1-19.4C37.4,67.3,37.9,65.8,38.6,64.4z M51.7,39.4c0-1.4,0-2.8,0-4.1c0-1.2-0.7-1.9-1.8-1.9
		c-1.1,0-1.7,0.7-1.7,1.9c0,1.4,0,2.7,0,4.1c-1.1,0-2.1,0-3,0c-1.1,0-1.8,0.7-1.8,1.7c0,1.1,0.7,1.8,1.8,1.8c1,0,2,0,3,0
		c0,3.7,0,7.2,0,10.7c0,1.1,0.7,1.8,1.7,1.8c1.1,0,1.8-0.7,1.8-1.8c0-2.2,0-4.5,0-6.7c0-1.3,0-2.6,0-4c1.1,0,2.2,0,3.2,0
		c1,0,1.7-0.7,1.7-1.8c0-1-0.7-1.7-1.7-1.7C53.9,39.4,52.9,39.4,51.7,39.4z"/>
	<path class="st0" d="M50.1,99.2c7.2,0,14.4,0,21.6,0c3,0,5,2.3,4.3,5c-0.4,1.5-1.7,2.7-3.3,2.9c-0.6,0.1-1.2,0.1-1.8,0.1
		c-13.9,0-27.8,0-41.7,0c-0.5,0-1,0-1.6-0.1c-2.4-0.2-3.9-1.7-3.8-3.9c0.1-2.3,1.7-3.9,4.1-3.9c6.7,0,13.3,0,20,0
		C48.7,99.3,49.4,99.3,50.1,99.2C50.1,99.2,50.1,99.2,50.1,99.2z"/>
</g>
</svg>
