<?xml version="1.0" encoding="utf-8"?>
<!-- Generator: Adobe Illustrator 24.1.3, SVG Export Plug-In . SVG Version: 6.00 Build 0)  -->
<svg version="1.1" id="Layer_1" xmlns="http://www.w3.org/2000/svg" xmlns:xlink="http://www.w3.org/1999/xlink" x="0px" y="0px"
	 viewBox="0 0 100 125" style="enable-background:new 0 0 100 125;" xml:space="preserve">
<style type="text/css">
	.st0{fill:url(#SVGID_1_);stroke:#000000;stroke-miterlimit:10;}
	.st1{fill:url(#SVGID_2_);stroke:#000000;stroke-miterlimit:10;}
</style>
<g>
	
		<linearGradient id="SVGID_1_" gradientUnits="userSpaceOnUse" x1="26.4429" y1="82.8726" x2="75.5872" y2="82.8726" gradientTransform="matrix(1 0 0 -1 0 126)">
		<stop  offset="1" style="stop-color:#FFFFFF"/>
		<stop  offset="1" style="stop-color:#000000"/>
	</linearGradient>
	<path class="st0" d="M47.4,74c-5.4,0-10.8,0-16.2,0c-1.1,0-2.4-0.2-3.4-0.6c-1.5-0.6-1.7-1.4-0.9-2.6c0.6-1,1.2-2,2-2.9
		c3.6-4.1,4.6-8.5,3-13.5c-1.1-3.7-2.2-7.4-3-11.1c-1.2-5.9-0.1-11.5,3.7-16.6c1.6-2.1,3.8-3.6,6.3-4.9c1.2-0.6,2.5-1.2,3.7-1.8
		c2-0.9,3.4-2.2,4.2-4.1c0.4-0.9,0.8-1.7,1.2-2.5c0.2-0.4,0.5-0.8,0.8-1.2c0.2-0.2,0.6-0.4,0.8-0.4c0.3,0.1,0.6,0.4,0.6,0.6
		c0.2,0.9,0.3,1.8,0.4,2.6c0.1,0.8,0.3,1.7,0.4,2.5c0.3,1.7,1.3,2.7,3.1,3.2c1,0.2,2.1,0.5,3.1,0.6c2.5,0.3,4.5,1.3,5.9,3.1
		c2.3,2.9,5.3,5.2,8.6,7.1c1.8,1,3.1,2.2,3.6,4.1c0.5,2.1-0.3,3.8-2.2,5.1c-2,1.4-4.2,1.8-6.7,0.9c-1.1-0.4-2-1-3-1.7
		c-2.2-1.6-4.5-1.8-7.2-0.8c-1.1,0.4-2.3,0.7-3.5,1c-0.8,0.2-0.9,0.7-0.3,1.4c1.2,1.4,2.5,2.6,3.6,4.1c2.5,3.1,4.1,6.6,5.7,10.1
		c1.7,3.5,3.5,7,5.2,10.6c0.7,1.5,1.1,3.2,1.5,4.8c0.1,0.5-0.3,1.1-0.6,1.5c-0.9,1-2.1,1.4-3.6,1.4C58.7,74,53.1,74,47.4,74L47.4,74
		z M39.4,59.5c-0.1-0.9,0-1.8-0.3-2.6c-0.8-3.3-1.7-6.8-2.5-10.1c-0.8-3-1.8-6.1-1.8-9.2c-0.1-2.9,0.6-5.6,2.9-7.8
		c1.6-1.6,3.6-2.7,5.7-3.7c0.9-0.4,1.1-0.9,0.7-1.5c-0.4-0.7-1.1-1-1.9-0.6c-0.6,0.2-1.1,0.5-1.6,0.7c-5.6,2.8-8.7,6.9-8.6,12.7
		c0,3,0.7,6,1.7,8.8c1.1,3.7,2.5,7.5,2.9,11.5c0.4,3.7-0.3,7.1-2.8,10.1c-0.3,0.3-0.6,0.6-0.9,1c-0.5,0.6-0.3,1.3,0.3,1.7
		c0.6,0.4,1.2,0.4,1.8-0.2c0.2-0.2,0.4-0.3,0.6-0.6C38.1,66.7,39.4,63.3,39.4,59.5z M54.5,24.9c0.1,0.2,0.1,0.4,0.2,0.6
		c1.3,1.9,3.3,2.7,5.7,3.2c0.2,0,0.6-0.1,0.6-0.2c0.1-0.2-0.1-0.4-0.2-0.6c-0.8-0.7-1.6-1.4-2.4-2.1C57.3,25.1,56,24.8,54.5,24.9z"
		/>
	
		<linearGradient id="SVGID_2_" gradientUnits="userSpaceOnUse" x1="23.0734" y1="44.9994" x2="71.3009" y2="44.9994" gradientTransform="matrix(1 0 0 -1 0 126)">
		<stop  offset="1" style="stop-color:#FFFFFF"/>
		<stop  offset="1" style="stop-color:#000000"/>
	</linearGradient>
	<path class="st1" d="M47.1,84.1c-6.3,0-12.7,0-18.9,0c-0.6,0-1.1,0-1.7-0.1c-2.1-0.2-3.5-1.4-3.4-3.1c0-1.8,1.5-3,3.6-3.1
		c0.3,0,0.5,0,0.7,0c12.7,0,25.6,0,38.3,0c0.6,0,1.3,0,1.9,0c2,0.1,3.5,1.4,3.6,3.1c0.1,1.7-1.5,2.9-3.5,3.1c-0.5,0-0.8,0.1-1.3,0.1
		C60.1,84.1,53.6,84.1,47.1,84.1z"/>
</g>
</svg>
