<?xml version="1.0" encoding="utf-8"?>
<!-- Generator: Adobe Illustrator 24.1.3, SVG Export Plug-In . SVG Version: 6.00 Build 0)  -->
<svg version="1.1" id="Layer_1" xmlns="http://www.w3.org/2000/svg" xmlns:xlink="http://www.w3.org/1999/xlink" x="0px" y="0px"
	 viewBox="0 0 100 125" style="enable-background:new 0 0 100 125;" xml:space="preserve">
<style type="text/css">
	.st0{stroke:#000000;stroke-width:0.75;stroke-miterlimit:10;}
</style>
<g>
	<path class="st0" d="M82.6,36.2c-1.7-3.6-1.3-6.4,1.1-8.5c2.2-1.9,5.2-2.2,7.6-0.7c2.4,1.5,3.6,4.5,2.9,7.2c-0.8,3-3.3,4.7-7.2,4.8
		c-0.7,2.2-1.4,4.4-2.1,6.6C81.3,57.3,77.7,69,74.2,80.7c-0.5,1.5-0.9,3-1.2,4.5c-0.1,0.3,0,0.8,0.1,1.1c0.4,0.9,0.9,1.8,1.3,2.7
		c1.2,2.5-0.3,5.3-3,5.7c-1.1,0.2-2.3,0.1-3.5,0.1c-12.6,0-25.1,0-37.7,0c-1.6,0-2.9-0.5-3.9-1.8c-0.9-1.2-1-2.5-0.4-3.8
		c0.5-1.2,1.1-2.3,1.6-3.4c0.2-0.4,0.2-0.9,0.1-1.3C23,70.3,18.6,56.2,14.2,42c-0.3-1-0.7-2-1-3c-4.5-0.4-6.6-1.9-7.4-5.2
		c-0.6-2.7,0.6-5.3,3-6.8c2.4-1.4,5.4-1.2,7.4,0.7c2.4,2.2,2.8,4.9,1.2,8.4c7.4,6.7,14.8,13.5,22.4,20.4c2.7-6.7,5.3-13.3,8-19.9
		c-2.9-1.1-5-2.8-6.1-5.7c-0.7-1.8-0.7-3.6-0.2-5.4c1.2-3.8,4.8-6.4,8.8-6.3c3.7,0.1,7.2,3,8.1,6.6c1.1,4.4-0.8,7.9-6.4,10.9
		c2.6,6.6,5.3,13.2,8,19.9C67.7,49.7,75.2,42.9,82.6,36.2z"/>
	<path class="st0" d="M49.9,107.8c-6.8,0-13.7,0-20.5,0c-0.6,0-1.2,0-1.8-0.1c-2.3-0.2-3.8-1.7-3.7-3.9c0-2.2,1.6-3.8,3.9-3.9
		c0.3,0,0.5,0,0.8,0c13.8,0,27.7,0,41.5,0c0.7,0,1.4,0,2.1,0c2.2,0.1,3.8,1.8,3.9,3.9c0.1,2.1-1.6,3.7-3.8,3.9
		c-0.5,0-0.9,0.1-1.4,0.1C64,107.8,57,107.8,49.9,107.8z"/>
</g>
</svg>
